<?xml version="1.0" encoding="UTF-8"?>
<svg id="Layer_1" data-name="Layer 1" xmlns="http://www.w3.org/2000/svg" viewBox="0 0 272.44 309.98">
  <defs>
    <style>
      .cls-1 {
        fill: #f0575e;
      }

      .cls-2 {
        fill: #333;
      }
    </style>
  </defs>
  <path class="cls-1" d="M155.81,17.49c-.13-.15-.35-.33-.61-.51.15.14.29.27.4.38.07.04.14.09.21.13Z"/>
  <path class="cls-1" d="M193.67,269.43s-.05.04-.07.06c.66-.51,1.31-1.02,1.97-1.53,0,0,0,0,0,0-.63.49-1.26.98-1.89,1.46Z"/>
  <path class="cls-1" d="M208.34,261.28s-.04.02-.06.03c.03-.01.05-.02.06-.03Z"/>
  <path class="cls-1" d="M263.53,201.46c-.09-.95-.17-1.91-.22-2.86-.27-4.89-.11-9.8.22-14.69.65-9.76,1.86-19.47,2.48-29.23,1.24-19.68,1.07-39.42-.36-59.08,1.15-9.08-2.78-18.21-11.22-23.37-9.63-5.89-19.26-11.78-29.08-17.34-9.18-5.2-18.73-9.67-27.98-14.72-.54-.57-1.45-1.28-1.71-1.55-2.14-2.27-4.11-4.24-6.61-6.17-5.48-4.24-11.41-7.1-18.08-9.12-2.21-.67-4.45-1.21-6.67-1.84-1.13-.32-2.25-.76-3.38-1.07-1.72-.95-3.43-1.89-5.11-2.92.08.09.13.17.12.23,0-.02-.12-.16-.33-.36-.16-.1-.31-.19-.47-.29-2.21-1.42-.89-.78.07-.09-1.02-.97-2.76-2.54-2.89-2.68-8.46-8.6-24.03-9.27-32.69-.55-21.05,9.52-41.23,20.89-60.17,34.14-5.44,3.81-10.57,7.99-13.86,13.27-9.92,3.31-19.45,7.98-28.05,13.77-7.62,3.89-13.15,11.45-12.9,20.67,1.11,40.51,1.38,81.04.8,121.56-.13,9.38,6.3,18.44,14.93,21.97,7.24,5.55,14.42,11.49,22.18,16.19,5.47,3.31,11.66,5.6,17.64,7.83.06.03.11.05.17.08,1.02.49,2.05.95,3.07,1.45,2.28,1.12,4.53,2.32,6.74,3.58,3.54,2.02,9.08,4.51,11.83,7.64-.98-1.04-2.62-2.05-.51-.29.84.7,1.69,1.4,2.53,2.11,2.97,2.47,5.96,4.94,9.14,7.14,2.48,1.72,5.17,2.85,7.95,4.02,1.19.5,2.69.96,4.07,1.52.12.09.45.3,1.14.67,2,1.1,3.97,2.21,5.86,3.49,1.07.72,2.09,1.5,3.14,2.25.1.08.2.16.32.25,5.09,4.02,9.85,6.88,16.62,6.88,5.76,0,12.65-2.56,16.62-6.88.27-.3.54-.6.79-.92,7.96-3.5,15.69-7.48,23.11-12.02,4.26-2.6,8.42-5.37,12.47-8.29,1.9-1.37,3.76-2.79,5.61-4.21.94-.72,1.88-1.45,2.81-2.17.53-.55,1.2-1.02,1.89-1.46.02-.01.03-.02.05-.04l-.05.04c.53-.34,1.07-.67,1.55-.99,2.01-1.34,4.11-2.5,6.3-3.54.51-.25,4.27-1.76,1.44-.69-3.54,1.35,3.82-1.62,3.49-1.47,5.39-2.28,10.68-4.67,15.76-7.6,4.19-2.41,8.2-5.1,12.06-8,1.94-1.45,3.85-2.94,5.76-4.44.06-.04.11-.06.19-.1.55-.31,1.13-.66,1.7-1.02.18-.03.38-.06.62-.11,3.44-.68,6.56-2.39,9.16-4.75,9.23-5.23,14.96-15.97,11.69-26.82-.7-2.32-1.2-4.64-1.74-6.99ZM178.19,199.58c-.18-.13.38-.83,1.76-1.19-.02.02-.04.04-.07.07-.04.04-.07.06-.1.09-.47.25-1.04.63-1.6,1.03ZM162.04,175.34c.73-1.89,2.14-2.99,0,0h0Z"/>
  <path class="cls-1" d="M110.97,40.96c-7.01,2.14-12.68,6.7-18.41,11.07-5.43,4.14-11.53,8.48-18.59,8.88l2.16,3.76c7.8-12.12,21.68-18.09,33.98-24.51,3.85-2.01,7.65-4.12,11.28-6.51,2.67-1.77.17-6.1-2.52-4.32-12.71,8.4-27.61,13.22-39.07,23.51-3.05,2.74-5.75,5.86-7.97,9.31-1,1.55.29,3.87,2.16,3.76,7.59-.43,14.16-4.34,20.1-8.8s11.28-9.22,18.23-11.34c3.07-.94,1.76-5.76-1.33-4.82h0Z"/>
  <path class="cls-2" d="M7.44,237.93l121.34,70.06c2.29,1.32,4.87,1.99,7.44,1.99s5.15-.66,7.44-1.99l121.34-70.06c4.59-2.65,7.44-7.59,7.44-12.89V84.93c0-5.3-2.85-10.24-7.44-12.89L143.67,1.99c-4.59-2.65-10.29-2.65-14.88,0L7.44,72.05C2.85,74.69,0,79.63,0,84.93v140.11c0,5.3,2.85,10.24,7.44,12.89ZM9.92,84.93c0-1.77.95-3.41,2.48-4.29L133.75,10.58c.77-.44,1.62-.66,2.48-.66s1.71.22,2.48.66l121.34,70.06c1.53.88,2.48,2.53,2.48,4.3v140.12c0,1.77-.95,3.41-2.48,4.29l-121.34,70.06c-1.53.88-3.43.88-4.96,0L12.4,229.34c-1.53-.88-2.48-2.53-2.48-4.3V84.93Z"/>
  <path class="cls-2" d="M134.8,47.42l94.92,158.29s-70.13-126.27-87.16-156.92l113.31,32.1-116.77-39.42-2.88-29.54-2.88,29.56L13.64,82.92c.11-.04,103.67-30.37,121.16-35.5Z"/>
  <path class="cls-2" d="M50.04,216.89c57.29,2.56,115.4,2.54,172.69,0-57.29-2.54-115.4-2.56-172.69,0Z"/>
  <path class="cls-2" d="M35.6,220.29l99.34,76.01c-.09-.07-80.56-68.15-94.73-80.12L125.13,62.99S55.53,178.82,37.68,208.54L11.82,86.09l21.05,129.18-21.17,11.89,23.9-6.88Z"/>
  <polygon class="cls-2" points="233.35 215.22 137.74 296.3 236.76 220.34 259.71 227.33 239.56 215.26 259.57 85.22 233.35 215.22"/>
</svg>