<?xml version="1.0" encoding="UTF-8"?>
<svg id="Layer_2" data-name="Layer 2" xmlns="http://www.w3.org/2000/svg" viewBox="0 0 264.86 241.7">
  <defs>
    <style>
      .cls-1 {
        fill: #333;
      }
    </style>
  </defs>
  <g id="big">
    <g>
      <path class="cls-1" d="M142.1,5.09c-3.2-3.66-7.99-5.53-12.82-5.01-4.83.53-9.11,3.38-11.44,7.65L1.82,219.68c-2.51,4.59-2.42,10.23.25,14.73s7.57,7.29,12.8,7.29h235.12c8.2,0,14.88-6.67,14.88-14.88v-75.5c0-3.6-1.3-7.07-3.67-9.78L142.1,5.09ZM254.94,226.82c0,2.73-2.22,4.96-4.96,4.96H14.87c-1.74,0-3.38-.93-4.27-2.43-.89-1.5-.92-3.38-.08-4.91L126.54,12.5c.78-1.42,2.21-2.38,3.82-2.55.18-.02.36-.03.54-.03,1.42,0,2.79.61,3.74,1.7l119.09,136.44c.79.9,1.22,2.06,1.22,3.26v75.5Z"/>
      <path class="cls-1" d="M135.38,18.91s35.75,70.85,53.33,104.58c17.53,34.93,35.98,69.69,57.7,102.24-15.13-36.09-33.91-70.67-53.33-104.58-18.39-33.26-38.69-69.49-57.7-102.24Z"/>
    </g>
  </g>
</svg>