<?xml version="1.0" encoding="UTF-8"?>
<svg id="Layer_2" data-name="Layer 2" xmlns="http://www.w3.org/2000/svg" viewBox="0 0 282.28 295.29">
  <defs>
    <style>
      .cls-1 {
        fill: #333;
      }
    </style>
  </defs>
  <g id="big">
    <g>
      <path class="cls-1" d="M141.13,295.29c-1.55,0-3.1-.24-4.6-.73l-78.03-25.37c-3.01-.98-5.58-2.85-7.44-5.4L2.84,197.41C.98,194.86,0,191.83,0,188.67v-82.06C0,103.45.98,100.43,2.85,97.86L51.08,31.49c1.86-2.56,4.43-4.43,7.44-5.4L136.55.73c3.01-.98,6.19-.98,9.2,0l78.03,25.37c3.01.98,5.58,2.85,7.44,5.4l48.23,66.38c1.86,2.56,2.84,5.58,2.84,8.75v82.06c0,3.16-.99,6.18-2.85,8.75l-48.23,66.36c-1.86,2.56-4.43,4.43-7.44,5.4l-78.04,25.36c-1.5.49-3.05.73-4.6.73ZM141.15,9.92c-.52,0-1.03.08-1.53.24l-78.03,25.35c-1,.33-1.86.95-2.48,1.8L10.87,103.7c-.62.86-.95,1.87-.95,2.91v82.06c0,1.06.33,2.07.94,2.92l48.23,66.38c.62.85,1.48,1.48,2.48,1.8l78.03,25.37c1,.33,2.06.33,3.07,0l78.04-25.36c1-.33,1.86-.95,2.48-1.8l48.23-66.36c.61-.85.95-1.88.95-2.91v-82.06c0-1.06-.33-2.07-.94-2.92l-48.23-66.38c-.62-.85-1.48-1.48-2.48-1.8l-78.03-25.37c-.5-.16-1.02-.24-1.53-.24Z"/>
      <path class="cls-1" d="M196.31,209.57l31.93-86.47,40.72-16.98-43.09,10.24c-1.12.27-2.14.84-2.95,1.65-.75.75-1.3,1.68-1.58,2.7l-25.03,88.86Z"/>
      <path class="cls-1" d="M197.09,218.55c-.6-.98-1.46-1.78-2.48-2.3-.95-.48-2-.71-3.06-.67l-92.48,3.66,92.34,3.65,28.72,33.48-23.04-37.82Z"/>
      <path class="cls-1" d="M131.17,66.41l-74.9,49.89-42.94-10.2,40.89,17.05c1.06.44,2.22.58,3.35.4,1.05-.17,2.04-.6,2.87-1.26l70.72-55.88Z"/>
      <path class="cls-1" d="M59.93,129.35l25.18,89.35-23.53,38.45,29.42-34.39c.74-.87,1.23-1.93,1.41-3.06.17-1.05.06-2.13-.31-3.12l-32.17-87.22Z"/>
      <path class="cls-1" d="M137.58,57.41c-.09,1.14.13,2.29.66,3.31.48.95,1.2,1.75,2.08,2.34l75.63,50.44-71.23-56.27-3.57-43.99-3.57,44.16Z"/>
    </g>
  </g>
</svg>