<?xml version="1.0" encoding="UTF-8"?>
<svg id="Layer_2" data-name="Layer 2" xmlns="http://www.w3.org/2000/svg" viewBox="0 0 282.29 295.3">
  <defs>
    <style>
      .cls-1 {
        fill: #ffc825;
      }

      .cls-2 {
        fill: #333;
      }
    </style>
  </defs>
  <g id="big">
    <g>
      <path class="cls-1" d="M278.64,152.32c.02-1.41-.06-2.81-.25-4.18-.4-11.2,1.6-22.37-2.24-33.34-4.09-11.67-10.7-22.68-16.97-33.3-5.63-9.52-11.69-18.79-18.36-27.62-4.28-5.67-8.54-12.13-14.6-16.15-4.16-6.63-11.13-11.48-19.39-10.73.16-.01-1.27.13-2.3.19,1.25.31,2.89.97.34.17-.18-.06-.37-.11-.55-.16-.46.02-.8.02-.81-.03-.02-.1.12-.13.34-.11-.73-.21-1.46-.41-2.18-.61-.45-.13-1.08-.24-1.5-.28-3.41-1.37-6.86-3.8-10.02-5.23-10.36-4.67-21.09-7.77-31.96-10.94-7.34-2.14-14.7-3.32-22.29-1.62-3.33.75-6.53,2.36-9.61,3.79-.98.45-1.93.96-2.9,1.42-.63.3-5.19,2.62-2.15,1.02,2.58-1.36.02-.03-.54.17-1.13.41-2.26.84-3.4,1.23-2.28.78-4.58,1.5-6.91,2.13-4.89,1.34-9.83,2.05-14.79,3.04-5.77,1.15-10.82,3.73-15.24,7.26-7.66-1.6-15.95.22-21.6,6.13-10.56,11.03-18.32,24.38-27.01,36.86-.29.36-.58.72-.88,1.07-.97,1.14-1.98,2.25-3.02,3.33-.25.26-2.59,2.54-3.74,3.58-.24.18-.51.38-.82.61-11.42,8.54-19.51,20.35-16.41,34.98-.4,1.61-.67,3.29-.79,5.04-.82,12.19-1.39,24.39-1.68,36.61-.14,5.94-.26,11.89-.23,17.83.04,10.18,3.4,18.38,10.73,25.44.13.13.31.34.51.59-.15-.33.03-.28.74.89.34.39.68.72.94.81-.26-.08-.5-.25-.72-.44.05.08.09.16.15.25,1.2,2.08,2.2,4.27,3.21,6.45,2.25,4.89,4.61,9.71,7.22,14.43,2.79,5.05,5.6,10.19,8.77,15.01,2.86,4.34,6.32,8.42,10.87,11.08.17.1.36.2.54.3.16.26.3.54.46.79,3.57,5.54,7.52,8.89,12.81,12.66,4.33,3.09,9.87,3.9,15.22,2.98,5.7,5.94,14.12,8.23,23.17,6.61-6.32,1.13.06.47,1.82.28.03,0,.06.01.09.02.89.22,3.83,1.66,1.25.14-2.78-1.64.39.22.97.53.96.51,1.9,1.06,2.83,1.62,2.1,1.27,4.13,2.64,6.24,3.88,12.88,7.61,26.62,9.18,41.14,6.44,9.99-1.89,19.46-6.17,29.11-9.28,10.55-3.41,21.25-6.33,32.05-8.83,6.62-1.53,12.09-6.62,15.02-12.83,1.07-1.43,2.14-2.86,3.22-4.28.49-.64.98-1.28,1.47-1.92.16-.21.35-.44.57-.74,2.71-3.43,5.42-6.86,8.17-10.26,5.81-7.15,11.91-14.03,17.79-21.11,8.48-10.21,13.92-21.02,12.35-34.69-.2-1.72-.45-3.43-.46-5.16,0-.43.01-.87.03-1.3.06-.28.14-.64.23-1.11.79-2.2,1.42-4.52,2.16-6.75.16-.4.29-.72.39-.98.24-.54.47-1.07.71-1.61.63-1.41,1.15-2.87,1.57-4.36.9-2.38,1.32-4.96,1.14-7.68Z"/>
      <path class="cls-2" d="M141.13,295.3c-1.55,0-3.1-.24-4.6-.73l-78.03-25.37c-3.01-.98-5.58-2.85-7.44-5.4L2.84,197.42c-1.86-2.55-2.84-5.58-2.84-8.74v-82.06c0-3.16.98-6.18,2.85-8.75L51.08,31.49c1.86-2.56,4.43-4.43,7.44-5.4L136.55.74c3.01-.98,6.19-.98,9.2,0l78.03,25.37c3.01.98,5.58,2.85,7.44,5.4l48.23,66.38c1.86,2.56,2.84,5.58,2.84,8.75v82.06c0,3.16-.99,6.18-2.85,8.75l-48.23,66.36c-1.86,2.56-4.43,4.43-7.44,5.4l-78.04,25.36c-1.5.49-3.05.73-4.6.73ZM141.15,9.93c-.52,0-1.03.08-1.53.24l-78.03,25.35c-1,.33-1.86.95-2.48,1.8L10.87,103.7c-.62.86-.95,1.87-.95,2.91v82.06c0,1.06.33,2.07.94,2.92l48.23,66.38c.62.85,1.48,1.48,2.48,1.8l78.03,25.37c1,.33,2.06.33,3.07,0l78.04-25.36c1-.33,1.86-.95,2.48-1.8l48.23-66.36c.61-.85.95-1.88.95-2.91v-82.06c0-1.06-.33-2.07-.94-2.92l-48.23-66.38c-.62-.85-1.48-1.48-2.48-1.8l-78.03-25.37c-.5-.16-1.02-.24-1.53-.24v-.02Z"/>
      <path class="cls-2" d="M196.31,209.58l31.93-86.47,40.72-16.98-43.09,10.24c-1.12.27-2.14.84-2.95,1.65-.75.75-1.3,1.68-1.58,2.7l-25.03,88.86Z"/>
      <path class="cls-2" d="M197.09,218.56c-.6-.98-1.46-1.78-2.48-2.3-.95-.48-2-.71-3.06-.67l-92.48,3.66,92.34,3.65,28.72,33.48-23.04-37.82h0Z"/>
      <path class="cls-2" d="M131.17,66.42l-74.9,49.89-42.94-10.2,40.89,17.05c1.06.44,2.22.58,3.35.4,1.05-.17,2.04-.6,2.87-1.26l70.72-55.88h0Z"/>
      <path class="cls-2" d="M59.93,129.36l25.18,89.35-23.53,38.45,29.42-34.39c.74-.87,1.23-1.93,1.41-3.06.17-1.05.06-2.13-.31-3.12l-32.17-87.22h0Z"/>
      <path class="cls-2" d="M137.58,57.41c-.09,1.14.13,2.29.66,3.31.48.95,1.2,1.75,2.08,2.34l75.63,50.44-71.23-56.27-3.57-43.99-3.57,44.16h0Z"/>
    </g>
  </g>
</svg>