<?xml version="1.0" encoding="UTF-8"?>
<svg id="Layer_2" data-name="Layer 2" xmlns="http://www.w3.org/2000/svg" viewBox="0 0 223.48 223.47">
  <defs>
    <style>
      .cls-1 {
        fill: #333;
      }
    </style>
  </defs>
  <g id="big">
    <g>
      <path class="cls-1" d="M208.6,0H31.1c-3.97,0-7.71,1.55-10.52,4.36L4.36,20.57C1.55,23.38,0,27.12,0,31.09v177.5c0,8.2,6.67,14.88,14.88,14.88h177.5c3.97,0,7.71-1.55,10.52-4.36l16.22-16.22c2.81-2.81,4.36-6.55,4.36-10.52V14.88c0-8.2-6.67-14.88-14.88-14.88ZM213.56,192.38c0,1.33-.52,2.57-1.45,3.51l-16.22,16.22c-.92.92-2.2,1.45-3.51,1.45H14.88c-2.73,0-4.96-2.23-4.96-4.96V31.09c0-1.32.52-2.57,1.45-3.51L27.59,11.37c.94-.94,2.18-1.45,3.51-1.45h177.5c2.74,0,4.96,2.23,4.96,4.96v177.5Z"/>
      <polygon class="cls-1" points="195.52 23.9 17.5 26.99 193.44 30.03 196.49 205.34 199.57 27.95 210.38 13.1 195.52 23.9"/>
    </g>
  </g>
</svg>