<?xml version="1.0" encoding="UTF-8"?>
<svg id="Layer_2" data-name="Layer 2" xmlns="http://www.w3.org/2000/svg" viewBox="0 0 271.69 307.49">
  <defs>
    <style>
      .cls-1 {
        fill: #333;
      }
    </style>
  </defs>
  <g id="big">
    <g>
      <path class="cls-1" d="M266.53,107.85L145.56,3.63c-5.63-4.85-13.8-4.85-19.42,0L5.17,107.85c-3.28,2.83-5.17,6.94-5.17,11.27v103.66c0,5.3,2.85,10.24,7.44,12.89l120.97,69.83c2.29,1.32,4.87,1.99,7.44,1.99s5.15-.66,7.44-1.99l120.97-69.83c4.59-2.65,7.44-7.59,7.44-12.89v-103.66c0-4.34-1.88-8.44-5.17-11.27ZM261.77,222.78c0,1.77-.95,3.41-2.48,4.3l-120.97,69.83c-1.53.88-3.43.88-4.96,0L12.4,227.08c-1.53-.88-2.48-2.53-2.48-4.29v-103.66c0-1.44.63-2.82,1.72-3.76L132.61,11.15c1.88-1.62,4.6-1.62,6.47,0l120.97,104.21c1.09.94,1.72,2.31,1.72,3.76v103.66Z"/>
      <path class="cls-1" d="M23.23,228.51c74.72,3.42,150.52,3.39,225.24,0-74.72-3.39-150.52-3.42-225.24,0Z"/>
      <path class="cls-1" d="M133.42,14.58c-20.19,32.55-41.74,68.5-61.33,101.58-20.63,33.68-40.63,68.07-57.03,104.05,22.88-32.26,42.56-66.82,61.32-101.58,18.76-33.52,39.04-70.28,57.03-104.05Z"/>
      <path class="cls-1" d="M137.93,14.17c18.04,33.88,38.34,70.64,57.14,104.26,18.8,34.83,38.52,69.46,61.44,101.78-16.44-36.06-36.48-70.51-57.14-104.26-19.6-33.12-41.23-69.2-61.44-101.79Z"/>
    </g>
  </g>
</svg>