<?xml version="1.0" encoding="UTF-8"?>
<svg id="Layer_2" data-name="Layer 2" xmlns="http://www.w3.org/2000/svg" viewBox="0 0 296.74 311.98">
  <defs>
    <style>
      .cls-1 {
        fill: #333;
      }
    </style>
  </defs>
  <g id="big">
    <g>
      <path class="cls-1" d="M148.37,311.98c-3.22,0-6.45-1.05-9.14-3.14L5.74,204.94c-3.65-2.84-5.74-7.12-5.74-11.74v-28.28c0-3.65,1.34-7.16,3.76-9.89L137.25,4.99c2.82-3.17,6.87-4.99,11.12-4.99s8.3,1.82,11.12,4.99l133.49,150.05c2.43,2.73,3.76,6.24,3.76,9.89v28.28c0,4.62-2.09,8.9-5.74,11.74l-133.49,103.89c-2.69,2.09-5.91,3.14-9.14,3.14ZM144.66,11.58L11.17,161.62c-.81.91-1.25,2.08-1.25,3.3v28.28c0,1.54.7,2.97,1.91,3.91l133.49,103.9c1.79,1.4,4.3,1.4,6.09,0l133.49-103.89c1.22-.95,1.91-2.37,1.91-3.91v-28.28c0-1.22-.45-2.39-1.25-3.3L152.07,11.58c-.94-1.06-2.29-1.66-3.71-1.66s-2.77.61-3.71,1.66Z"/>
      <path class="cls-1" d="M281.44,195.12l-42.68,10.18L151.37,15.01l82.01,193.31c.5,1.18,1.42,2.12,2.58,2.65,1.25.57,2.67.61,3.94.12l41.52-15.97Z"/>
      <polygon class="cls-1" points="148.37 254.74 71.74 215.58 145.42 260.06 148.37 296.85 151.32 260.06 226.23 214.89 148.37 254.74"/>
      <path class="cls-1" d="M145.17,15.37L57.96,205.31l-42.64-9.97,41.5,15.77c1.28.49,2.69.44,3.94-.13,1.16-.53,2.08-1.47,2.57-2.65L145.17,15.37Z"/>
    </g>
  </g>
</svg>